<?xml version="1.0" encoding="UTF-8" standalone="no"?>
<svg
   xmlns:dc="http://purl.org/dc/elements/1.1/"
   xmlns:cc="http://creativecommons.org/ns#"
   xmlns:rdf="http://www.w3.org/1999/02/22-rdf-syntax-ns#"
   xmlns:svg="http://www.w3.org/2000/svg"
   xmlns="http://www.w3.org/2000/svg"
   xmlns:sodipodi="http://sodipodi.sourceforge.net/DTD/sodipodi-0.dtd"
   xmlns:inkscape="http://www.inkscape.org/namespaces/inkscape"
   class="chartTree"
   width="1056.75"
   height="792.5625"
   id="svg2"
   version="1.1"
   inkscape:version="0.91 r13725"
   sodipodi:docname="CerebroVisColor.svg">
  <metadata
     id="metadata225">
    <rdf:RDF>
      <cc:Work
         rdf:about="">
        <dc:format>image/svg+xml</dc:format>
        <dc:type
           rdf:resource="http://purl.org/dc/dcmitype/StillImage" />
        <dc:title></dc:title>
      </cc:Work>
    </rdf:RDF>
  </metadata>
  <defs
     id="defs223" />
  <sodipodi:namedview
     pagecolor="#ffffff"
     bordercolor="#666666"
     borderopacity="1"
     objecttolerance="10"
     gridtolerance="10"
     guidetolerance="10"
     inkscape:pageopacity="0"
     inkscape:pageshadow="2"
     inkscape:window-width="879"
     inkscape:window-height="480"
     id="namedview221"
     showgrid="false"
     inkscape:zoom="0.25928555"
     inkscape:cx="528.375"
     inkscape:cy="396.28125"
     inkscape:window-x="0"
     inkscape:window-y="0"
     inkscape:window-maximized="0"
     inkscape:current-layer="svg2" />
  <g
     id="g4" />
  <g
     transform="translate(90,20)"
     style="fill: none;"
     id="g6">
    <path
       id="anteriorComm"
       d="M336.8305084745763,427.5511363636364C336.8305084745763,407.5511363636364 601.8368644067797,407.5511363636364 601.8368644067797,427.5511363636364"
       stroke="silver"
       stroke-width="5"
       fill="none"
       style="opacity: 0.7; stroke-dasharray: 2px;" />
    <path
       class="linkForeGround"
       id="linkFG8086"
       d="M258.505031779661,475.0568181818182C258.505031779661,498.8096590909091 479.7048463983051,498.8096590909091 479.7048463983051,522.5625"
       stroke="#7570b3"
       opacity="0"
       stroke-width="6.440680443502756" />
    <path
       class="linkForeGround"
       id="linkFG14156"
       d="M416.0847457627119,475.0568181818182C416.0847457627119,498.8096590909091 479.7048463983051,498.8096590909091 479.7048463983051,522.5625"
       stroke="#dfc27d"
       opacity="1"
       stroke-width="5.393326938302625" />
    <path
       class="linkForeGround"
       id="linkFG22710"
       d="M495.3389830508475,475.0568181818182C495.3389830508475,498.8096590909091 479.7048463983051,498.8096590909091 479.7048463983051,522.5625"
       stroke="#80cdc1"
       opacity="1"
       stroke-width="5.1318796218028595" />
    <path
       class="linkForeGround"
       id="linkFG585"
       d="M700.9046610169491,475.0568181818182C700.9046610169491,498.8096590909091 479.7048463983051,498.8096590909091 479.7048463983051,522.5625"
       stroke="#7570b3"
       opacity="0"
       stroke-width="7.9897000433601875" />
    <path
       class="linkForeGround"
       id="linkFG12355"
       d="M180.17955508474577,427.5511363636364C180.17955508474577,451.30397727272725 258.505031779661,451.30397727272725 258.505031779661,475.0568181818182"
       stroke="#bf812d"
       opacity="1"
       stroke-width="6.355472791766678" />
    <path
       class="linkForeGround"
       id="linkFG22319"
       d="M336.8305084745763,427.5511363636364C336.8305084745763,451.30397727272725 258.505031779661,451.30397727272725 258.505031779661,475.0568181818182"
       stroke="#8c510a"
       opacity="1"
       stroke-width="5.245846831275977" />
    <path
       class="linkForeGround"
       id="linkFG81426"
       d="M401.2245762711865,427.5511363636364C401.2245762711865,451.30397727272725 416.0847457627119,451.30397727272725 416.0847457627119,475.0568181818182"
       stroke="#dfc27d"
       opacity="1"
       stroke-width="2.7254597829103138" />
    <path
       class="linkForeGround"
       id="linkFG17785"
       d="M430.94491525423734,427.5511363636364C430.94491525423734,451.30397727272725 416.0847457627119,451.30397727272725 416.0847457627119,475.0568181818182"
       stroke="#dfc27d"
       opacity="1"
       stroke-width="4.222192947339193" />
    <path
       class="linkForeGround"
       id="linkFG1522"
       d="M480.4788135593221,427.5511363636364C480.4788135593221,451.30397727272725 495.3389830508475,451.30397727272725 495.3389830508475,475.0568181818182"
       stroke="#80cdc1"
       opacity="1"
       stroke-width="1" />
    <path
       class="linkForeGround"
       id="linkFG13772"
       d="M510.19915254237293,427.5511363636364C510.19915254237293,451.30397727272725 495.3389830508475,451.30397727272725 495.3389830508475,475.0568181818182"
       stroke="#80cdc1"
       opacity="1"
       stroke-width="3.7300127206373763" />
    <path
       class="linkForeGround"
       id="linkFG4784"
       d="M601.8368644067797,427.5511363636364C601.8368644067797,451.30397727272725 700.9046610169491,451.30397727272725 700.9046610169491,475.0568181818182"
       stroke="#01665e"
       opacity="1"
       stroke-width="5.095656066114667" />
    <path
       class="linkForeGround"
       id="linkFG3855"
       d="M799.9724576271187,427.5511363636364C799.9724576271187,451.30397727272725 700.9046610169491,451.30397727272725 700.9046610169491,475.0568181818182"
       stroke="#35978f"
       opacity="1"
       stroke-width="6.880607599295794" />
    <path
       class="linkForeGround"
       id="linkFG9902"
       d="M122.59639830508475,380.0454545454545C122.59639830508475,403.79829545454544 180.17955508474577,403.79829545454544 180.17955508474577,427.5511363636364"
       stroke="#bf812d"
       opacity="1"
       stroke-width="7.020599913279623" />
    <path
       class="linkForeGround"
       id="linkFG95120"
       d="M237.7627118644068,380.0454545454545C237.7627118644068,403.79829545454544 180.17955508474577,403.79829545454544 180.17955508474577,427.5511363636364"
       stroke="#bf812d"
       opacity="1"
       stroke-width="3.2028848035081188" />
    <path
       class="linkForeGround"
       id="linkFG36783"
       d="M297.2033898305085,380.0454545454545C297.2033898305085,403.79829545454544 336.8305084745763,403.79829545454544 336.8305084745763,427.5511363636364"
       stroke="#8c510a"
       opacity="1"
       stroke-width="3.4987747321659985" />
    <path
       class="linkForeGround"
       id="linkFG61101"
       d="M376.4576271186441,380.0454545454545C376.4576271186441,403.79829545454544 336.8305084745763,403.79829545454544 336.8305084745763,427.5511363636364"
       stroke="#8c510a"
       opacity="1"
       stroke-width="3.9812500502057375" />
    <path
       class="linkForeGround"
       id="linkFG14112"
       d="M396.271186440678,380.0454545454545C396.271186440678,403.79829545454544 401.2245762711865,403.79829545454544 401.2245762711865,427.5511363636364"
       stroke="#dfc27d"
       opacity="1"
       stroke-width="2.9629464514396817" />
    <path
       class="linkForeGround"
       id="linkFG12057"
       d="M406.17796610169495,380.0454545454545C406.17796610169495,403.79829545454544 401.2245762711865,403.79829545454544 401.2245762711865,427.5511363636364"
       stroke="#dfc27d"
       opacity="1"
       stroke-width="2.7609125905568126" />
    <path
       class="linkForeGround"
       id="linkFG87435"
       d="M425.99152542372883,380.0454545454545C425.99152542372883,403.79829545454544 430.94491525423734,403.79829545454544 430.94491525423734,427.5511363636364"
       stroke="#dfc27d"
       opacity="1"
       stroke-width="2.7286228892548263" />
    <path
       class="linkForeGround"
       id="linkFG12509"
       d="M435.8983050847458,380.0454545454545C435.8983050847458,403.79829545454544 430.94491525423734,403.79829545454544 430.94491525423734,427.5511363636364"
       stroke="#dfc27d"
       opacity="1"
       stroke-width="2.9629464514396817" />
    <path
       class="linkForeGround"
       id="linkFG35847"
       d="M475.5254237288136,380.0454545454545C475.5254237288136,403.79829545454544 480.4788135593221,403.79829545454544 480.4788135593221,427.5511363636364"
       stroke="#80cdc1"
       opacity="1"
       stroke-width="3.1231446127119624" />
    <path
       class="linkForeGround"
       id="linkFG13743"
       d="M485.43220338983053,380.0454545454545C485.43220338983053,403.79829545454544 480.4788135593221,403.79829545454544 480.4788135593221,427.5511363636364"
       stroke="#80cdc1"
       opacity="1"
       stroke-width="4.010299956639812" />
    <path
       class="linkForeGround"
       id="linkFG21114"
       d="M505.2457627118644,380.0454545454545C505.2457627118644,403.79829545454544 510.19915254237293,403.79829545454544 510.19915254237293,427.5511363636364"
       stroke="#80cdc1"
       opacity="1"
       stroke-width="2.51267675330649" />
    <path
       class="linkForeGround"
       id="linkFG48706"
       d="M515.1525423728814,380.0454545454545C515.1525423728814,403.79829545454544 510.19915254237293,403.79829545454544 510.19915254237293,427.5511363636364"
       stroke="#80cdc1"
       opacity="1"
       stroke-width="3.1935994921266158" />
    <path
       class="linkForeGround"
       id="linkFG1788"
       d="M559.7330508474577,380.0454545454545C559.7330508474577,403.79829545454544 601.8368644067797,403.79829545454544 601.8368644067797,427.5511363636364"
       stroke="#01665e"
       opacity="1"
       stroke-width="4.521825181113625" />
    <path
       class="linkForeGround"
       id="linkFG12756"
       d="M643.9406779661017,380.0454545454545C643.9406779661017,403.79829545454544 601.8368644067797,403.79829545454544 601.8368644067797,427.5511363636364"
       stroke="#01665e"
       opacity="1"
       stroke-width="3.8084384314177253" />
    <path
       class="linkForeGround"
       id="linkFG1941"
       d="M738.0550847457628,380.0454545454545C738.0550847457628,403.79829545454544 799.9724576271187,403.79829545454544 799.9724576271187,427.5511363636364"
       stroke="#35978f"
       opacity="1"
       stroke-width="5.847742189481879" />
    <path
       class="linkForeGround"
       id="linkFG2633"
       d="M861.8898305084747,380.0454545454545C861.8898305084747,403.79829545454544 799.9724576271187,403.79829545454544 799.9724576271187,427.5511363636364"
       stroke="#35978f"
       opacity="1"
       stroke-width="4.979400086720376" />
    <path
       class="linkForeGround"
       id="linkFG14883"
       d="M61.91737288135594,332.53977272727275C61.91737288135594,356.2926136363636 122.59639830508475,356.2926136363636 122.59639830508475,380.0454545454545"
       stroke="#bf812d"
       opacity="1"
       stroke-width="5.771212547196624" />
    <path
       class="linkForeGround"
       id="linkFG14880"
       d="M183.27542372881356,332.53977272727275C183.27542372881356,356.2926136363636 122.59639830508475,356.2926136363636 122.59639830508475,380.0454545454545"
       stroke="#bf812d"
       opacity="1"
       stroke-width="5.81729196960016" />
    <path
       class="linkForeGround"
       id="linkFG202724"
       d="M232.80932203389833,332.53977272727275C232.80932203389833,356.2926136363636 237.7627118644068,356.2926136363636 237.7627118644068,380.0454545454545"
       stroke="#bf812d"
       opacity="1"
       stroke-width="2.5342727441973745" />
    <path
       class="linkForeGround"
       id="linkFG36300"
       d="M242.71610169491527,332.53977272727275C242.71610169491527,356.2926136363636 237.7627118644068,356.2926136363636 237.7627118644068,380.0454545454545"
       stroke="#bf812d"
       opacity="1"
       stroke-width="2.8905623622004892" />
    <path
       class="linkForeGround"
       id="linkFG32968"
       d="M272.4364406779661,332.53977272727275C272.4364406779661,356.2926136363636 297.2033898305085,356.2926136363636 297.2033898305085,380.0454545454545"
       stroke="#8c510a"
       opacity="1"
       stroke-width="4.143939572219626" />
    <path
       class="linkForeGround"
       id="linkFG73185"
       d="M321.97033898305085,332.53977272727275C321.97033898305085,356.2926136363636 297.2033898305085,356.2926136363636 297.2033898305085,380.0454545454545"
       stroke="#8c510a"
       opacity="1"
       stroke-width="3.3194907652068193" />
    <path
       class="linkForeGround"
       id="linkFG9114"
       d="M361.5974576271187,332.53977272727275C361.5974576271187,356.2926136363636 376.4576271186441,356.2926136363636 376.4576271186441,380.0454545454545"
       stroke="#8c510a"
       opacity="1"
       stroke-width="2.7609125905568126" />
    <path
       class="linkForeGround"
       id="linkFG36495"
       d="M391.3177966101695,332.53977272727275C391.3177966101695,356.2926136363636 376.4576271186441,356.2926136363636 376.4576271186441,380.0454545454545"
       stroke="#8c510a"
       opacity="1"
       stroke-width="3.4287257164794136" />
    <path
       class="linkForeGround"
       id="linkFG36010"
       d="M430.94491525423734,332.53977272727275C430.94491525423734,356.2926136363636 435.8983050847458,356.2926136363636 435.8983050847458,380.0454545454545"
       stroke="#dfc27d"
       opacity="1"
       stroke-width="3.814878879400811" />
    <path
       class="linkForeGround"
       id="linkFG38210"
       d="M440.85169491525426,332.53977272727275C440.85169491525426,356.2926136363636 435.8983050847458,356.2926136363636 435.8983050847458,380.0454545454545"
       stroke="#dfc27d"
       opacity="1"
       stroke-width="1.909630765957316" />
    <path
       class="linkForeGround"
       id="linkFG16907"
       d="M480.4788135593221,332.53977272727275C480.4788135593221,356.2926136363636 485.43220338983053,356.2926136363636 485.43220338983053,380.0454545454545"
       stroke="#80cdc1"
       opacity="1"
       stroke-width="3.890210881909658" />
    <path
       class="linkForeGround"
       id="linkFG40428"
       d="M490.385593220339,332.53977272727275C490.385593220339,356.2926136363636 485.43220338983053,356.2926136363636 485.43220338983053,380.0454545454545"
       stroke="#80cdc1"
       opacity="1"
       stroke-width="2.1115045212266668" />
    <path
       class="linkForeGround"
       id="linkFG17425"
       d="M530.0127118644068,332.53977272727275C530.0127118644068,356.2926136363636 559.7330508474577,356.2926136363636 559.7330508474577,380.0454545454545"
       stroke="#01665e"
       opacity="1"
       stroke-width="2.7254597829103124" />
    <path
       class="linkForeGround"
       id="linkFG457"
       d="M589.4533898305085,332.53977272727275C589.4533898305085,356.2926136363636 559.7330508474577,356.2926136363636 559.7330508474577,380.0454545454545"
       stroke="#01665e"
       opacity="1"
       stroke-width="2.7609125905568126" />
    <path
       class="linkForeGround"
       id="linkFG7707"
       d="M638.9872881355933,332.53977272727275C638.9872881355933,356.2926136363636 643.9406779661017,356.2926136363636 643.9406779661017,380.0454545454545"
       stroke="#01665e"
       opacity="1"
       stroke-width="3.8523572848074936" />
    <path
       class="linkForeGround"
       id="linkFG17514"
       d="M648.8940677966102,332.53977272727275C648.8940677966102,356.2926136363636 643.9406779661017,356.2926136363636 643.9406779661017,380.0454545454545"
       stroke="#01665e"
       opacity="1"
       stroke-width="3.518119729937993" />
    <path
       class="linkForeGround"
       id="linkFG4564"
       d="M678.6144067796611,332.53977272727275C678.6144067796611,356.2926136363636 738.0550847457628,356.2926136363636 738.0550847457628,380.0454545454545"
       stroke="#35978f"
       opacity="1"
       stroke-width="6.351132016973491" />
    <path
       class="linkForeGround"
       id="linkFG6309"
       d="M797.4957627118645,332.53977272727275C797.4957627118645,356.2926136363636 738.0550847457628,356.2926136363636 738.0550847457628,380.0454545454545"
       stroke="#35978f"
       opacity="1"
       stroke-width="4.979400086720376" />
    <path
       class="linkForeGround"
       id="linkFG15882"
       d="M856.9364406779662,332.53977272727275C856.9364406779662,356.2926136363636 861.8898305084747,356.2926136363636 861.8898305084747,380.0454545454545"
       stroke="#35978f"
       opacity="1"
       stroke-width="5.01400540781544" />
    <path
       class="linkForeGround"
       id="linkFG22485"
       d="M866.8432203389831,332.53977272727275C866.8432203389831,356.2926136363636 861.8898305084747,356.2926136363636 861.8898305084747,380.0454545454545"
       stroke="#35978f"
       opacity="1"
       stroke-width="2.46128035678238" />
    <path
       class="linkForeGround"
       id="linkFG134616"
       d="M29.72033898305085,285.0340909090909C29.72033898305085,308.7869318181818 61.91737288135594,308.7869318181818 61.91737288135594,332.53977272727275"
       stroke="#bf812d"
       opacity="1"
       stroke-width="4.154455182245842" />
    <path
       class="linkForeGround"
       id="linkFG17409"
       d="M94.11440677966102,285.0340909090909C94.11440677966102,308.7869318181818 61.91737288135594,308.7869318181818 61.91737288135594,332.53977272727275"
       stroke="#bf812d"
       opacity="1"
       stroke-width="5.101744650890493" />
    <path
       class="linkForeGround"
       id="linkFG5959"
       d="M158.5084745762712,285.0340909090909C158.5084745762712,308.7869318181818 183.27542372881356,308.7869318181818 183.27542372881356,332.53977272727275"
       stroke="#bf812d"
       opacity="1"
       stroke-width="4.979400086720376" />
    <path
       class="linkForeGround"
       id="linkFG9720"
       d="M208.04237288135596,285.0340909090909C208.04237288135596,308.7869318181818 183.27542372881356,308.7869318181818 183.27542372881356,332.53977272727275"
       stroke="#bf812d"
       opacity="1"
       stroke-width="3.218487496163563" />
    <path
       class="linkForeGround"
       id="linkFG69636"
       d="M237.7627118644068,285.0340909090909C237.7627118644068,308.7869318181818 242.71610169491527,308.7869318181818 242.71610169491527,332.53977272727275"
       stroke="#bf812d"
       opacity="1"
       stroke-width="3.8502120909782325" />
    <path
       class="linkForeGround"
       id="linkFG108496"
       d="M247.66949152542375,285.0340909090909C247.66949152542375,308.7869318181818 242.71610169491527,308.7869318181818 242.71610169491527,332.53977272727275"
       stroke="#bf812d"
       opacity="1"
       stroke-width="2.1809931207799442" />
    <path
       class="linkForeGround"
       id="linkFG72029"
       d="M267.48305084745766,285.0340909090909C267.48305084745766,308.7869318181818 272.4364406779661,308.7869318181818 272.4364406779661,332.53977272727275"
       stroke="#8c510a"
       opacity="1"
       stroke-width="2.5871716298625853" />
    <path
       class="linkForeGround"
       id="linkFG12429"
       d="M277.3898305084746,285.0340909090909C277.3898305084746,308.7869318181818 272.4364406779661,308.7869318181818 272.4364406779661,332.53977272727275"
       stroke="#8c510a"
       opacity="1"
       stroke-width="4.679767852945943" />
    <path
       class="linkForeGround"
       id="linkFG52356"
       d="M307.1101694915254,285.0340909090909C307.1101694915254,308.7869318181818 321.97033898305085,308.7869318181818 321.97033898305085,332.53977272727275"
       stroke="#8c510a"
       opacity="1"
       stroke-width="3.0230664189245644" />
    <path
       class="linkForeGround"
       id="linkFG64264"
       d="M336.8305084745763,285.0340909090909C336.8305084745763,308.7869318181818 321.97033898305085,308.7869318181818 321.97033898305085,332.53977272727275"
       stroke="#8c510a"
       opacity="1"
       stroke-width="2.8105467858723125" />
    <path
       class="linkForeGround"
       id="linkFG77104"
       d="M356.6440677966102,285.0340909090909C356.6440677966102,308.7869318181818 361.5974576271187,308.7869318181818 361.5974576271187,332.53977272727275"
       stroke="#8c510a"
       opacity="1"
       stroke-width="2.7825732081218892" />
    <path
       class="linkForeGround"
       id="linkFG9130"
       d="M366.5508474576271,285.0340909090909C366.5508474576271,308.7869318181818 361.5974576271187,308.7869318181818 361.5974576271187,332.53977272727275"
       stroke="#8c510a"
       opacity="1"
       stroke-width="4.521825181113625" />
    <path
       class="linkForeGround"
       id="linkFG41820"
       d="M386.36440677966107,285.0340909090909C386.36440677966107,308.7869318181818 391.3177966101695,308.7869318181818 391.3177966101695,332.53977272727275"
       stroke="#8c510a"
       opacity="1"
       stroke-width="3.0091484278071334" />
    <path
       class="linkForeGround"
       id="linkFG26906"
       d="M396.271186440678,285.0340909090909C396.271186440678,308.7869318181818 391.3177966101695,308.7869318181818 391.3177966101695,332.53977272727275"
       stroke="#8c510a"
       opacity="1"
       stroke-width="2.996554655134193" />
    <path
       class="linkForeGround"
       id="linkFG18155"
       d="M416.0847457627119,285.0340909090909C416.0847457627119,308.7869318181818 430.94491525423734,308.7869318181818 430.94491525423734,332.53977272727275"
       stroke="#dfc27d"
       opacity="1"
       stroke-width="3.3653726148869376" />
    <path
       class="linkForeGround"
       id="linkFG9320"
       d="M445.80508474576277,285.0340909090909C445.80508474576277,308.7869318181818 430.94491525423734,308.7869318181818 430.94491525423734,332.53977272727275"
       stroke="#dfc27d"
       opacity="1"
       stroke-width="2.46128035678238" />
    <path
       class="linkForeGround"
       id="linkFG39852"
       d="M475.5254237288136,285.0340909090909C475.5254237288136,308.7869318181818 480.4788135593221,308.7869318181818 480.4788135593221,332.53977272727275"
       stroke="#80cdc1"
       opacity="1"
       stroke-width="2.6385680263866957" />
    <path
       class="linkForeGround"
       id="linkFG12372"
       d="M485.43220338983053,285.0340909090909C485.43220338983053,308.7869318181818 480.4788135593221,308.7869318181818 480.4788135593221,332.53977272727275"
       stroke="#80cdc1"
       opacity="1"
       stroke-width="2.7609125905568126" />
    <path
       class="linkForeGround"
       id="linkFG6335"
       d="M525.0593220338983,285.0340909090909C525.0593220338983,308.7869318181818 530.0127118644068,308.7869318181818 530.0127118644068,332.53977272727275"
       stroke="#01665e"
       opacity="1"
       stroke-width="3.340832060333679" />
    <path
       class="linkForeGround"
       id="linkFG9690"
       d="M534.9661016949153,285.0340909090909C534.9661016949153,308.7869318181818 530.0127118644068,308.7869318181818 530.0127118644068,332.53977272727275"
       stroke="#01665e"
       opacity="1"
       stroke-width="3.1260809288144364" />
    <path
       class="linkForeGround"
       id="linkFG1160"
       d="M564.6864406779662,285.0340909090909C564.6864406779662,308.7869318181818 589.4533898305085,308.7869318181818 589.4533898305085,332.53977272727275"
       stroke="#01665e"
       opacity="1"
       stroke-width="4.80211241711606" />
    <path
       class="linkForeGround"
       id="linkFG2109"
       d="M614.2203389830509,285.0340909090909C614.2203389830509,308.7869318181818 589.4533898305085,308.7869318181818 589.4533898305085,332.53977272727275"
       stroke="#01665e"
       opacity="1"
       stroke-width="3.2184874961635637" />
    <path
       class="linkForeGround"
       id="linkFG19533"
       d="M634.0338983050848,285.0340909090909C634.0338983050848,308.7869318181818 638.9872881355933,308.7869318181818 638.9872881355933,332.53977272727275"
       stroke="#01665e"
       opacity="1"
       stroke-width="3.609127724559986" />
    <path
       class="linkForeGround"
       id="linkFG12030"
       d="M643.9406779661017,285.0340909090909C643.9406779661017,308.7869318181818 638.9872881355933,308.7869318181818 638.9872881355933,332.53977272727275"
       stroke="#01665e"
       opacity="1"
       stroke-width="2.903316981702914" />
    <path
       class="linkForeGround"
       id="linkFG2766"
       d="M663.7542372881356,285.0340909090909C663.7542372881356,308.7869318181818 678.6144067796611,308.7869318181818 678.6144067796611,332.53977272727275"
       stroke="#35978f"
       opacity="1"
       stroke-width="4.010299956639812" />
    <path
       class="linkForeGround"
       id="linkFG9945"
       d="M693.4745762711865,285.0340909090909C693.4745762711865,308.7869318181818 678.6144067796611,308.7869318181818 678.6144067796611,332.53977272727275"
       stroke="#35978f"
       opacity="1"
       stroke-width="4.699576073460529" />
    <path
       class="linkForeGround"
       id="linkFG3168"
       d="M792.542372881356,285.0340909090909C792.542372881356,308.7869318181818 797.4957627118645,308.7869318181818 797.4957627118645,332.53977272727275"
       stroke="#35978f"
       opacity="1"
       stroke-width="5.3880595697745335" />
    <path
       class="linkForeGround"
       id="linkFG11799"
       d="M802.449152542373,285.0340909090909C802.449152542373,308.7869318181818 797.4957627118645,308.7869318181818 797.4957627118645,332.53977272727275"
       stroke="#35978f"
       opacity="1"
       stroke-width="3.762064119389491" />
    <path
       class="linkForeGround"
       id="linkFG73251"
       d="M851.9830508474577,285.0340909090909C851.9830508474577,308.7869318181818 856.9364406779662,308.7869318181818 856.9364406779662,332.53977272727275"
       stroke="#35978f"
       opacity="1"
       stroke-width="4.52968183863161" />
    <path
       class="linkForeGround"
       id="linkFG19305"
       d="M861.8898305084747,285.0340909090909C861.8898305084747,308.7869318181818 856.9364406779662,308.7869318181818 856.9364406779662,332.53977272727275"
       stroke="#35978f"
       opacity="1"
       stroke-width="2.7026171539495745" />
    <path
       class="linkForeGround"
       id="linkFG39697"
       d="M14.860169491525426,237.52840909090907C14.860169491525426,261.28125 29.72033898305085,261.28125 29.72033898305085,285.0340909090909"
       stroke="#bf812d"
       opacity="1"
       stroke-width="2.9629464514396817" />
    <path
       class="linkForeGround"
       id="linkFG67183"
       d="M44.58050847457628,237.52840909090907C44.58050847457628,261.28125 29.72033898305085,261.28125 29.72033898305085,285.0340909090909"
       stroke="#bf812d"
       opacity="1"
       stroke-width="3.717406195619934" />
    <path
       class="linkForeGround"
       id="linkFG14961"
       d="M89.16101694915255,237.52840909090907C89.16101694915255,261.28125 94.11440677966102,261.28125 94.11440677966102,285.0340909090909"
       stroke="#bf812d"
       opacity="1"
       stroke-width="4.357921019231932" />
    <path
       class="linkForeGround"
       id="linkFG96705"
       d="M99.0677966101695,237.52840909090907C99.0677966101695,261.28125 94.11440677966102,261.28125 94.11440677966102,285.0340909090909"
       stroke="#bf812d"
       opacity="1"
       stroke-width="2.719352992845235" />
    <path
       class="linkForeGround"
       id="linkFG85320"
       d="M133.74152542372883,237.52840909090907C133.74152542372883,261.28125 158.5084745762712,261.28125 158.5084745762712,285.0340909090909"
       stroke="#bf812d"
       opacity="1"
       stroke-width="4.0678232455307235" />
    <path
       class="linkForeGround"
       id="linkFG17901"
       d="M183.27542372881356,237.52840909090907C183.27542372881356,261.28125 158.5084745762712,261.28125 158.5084745762712,285.0340909090909"
       stroke="#bf812d"
       opacity="1"
       stroke-width="4.979400086720376" />
    <path
       class="linkForeGround"
       id="linkFG42224"
       d="M203.08898305084747,237.52840909090907C203.08898305084747,261.28125 208.04237288135596,261.28125 208.04237288135596,285.0340909090909"
       stroke="#bf812d"
       opacity="1"
       stroke-width="2.648102486459922" />
    <path
       class="linkForeGround"
       id="linkFG35860"
       d="M212.99576271186442,237.52840909090907C212.99576271186442,261.28125 208.04237288135596,261.28125 208.04237288135596,285.0340909090909"
       stroke="#bf812d"
       opacity="1"
       stroke-width="2.8905623622004883" />
    <path
       class="linkForeGround"
       id="linkFG127509"
       d="M232.80932203389833,237.52840909090907C232.80932203389833,261.28125 237.7627118644068,261.28125 237.7627118644068,285.0340909090909"
       stroke="#bf812d"
       opacity="1"
       stroke-width="2.605790928774337" />
    <path
       class="linkForeGround"
       id="linkFG33315"
       d="M242.71610169491527,237.52840909090907C242.71610169491527,261.28125 237.7627118644068,261.28125 237.7627118644068,285.0340909090909"
       stroke="#bf812d"
       opacity="1"
       stroke-width="2.7609125905568126" />
    <path
       class="linkForeGround"
       id="linkFG45881"
       d="M272.4364406779661,237.52840909090907C272.4364406779661,261.28125 277.3898305084746,261.28125 277.3898305084746,285.0340909090909"
       stroke="#8c510a"
       opacity="1"
       stroke-width="2.489390130120665" />
    <path
       class="linkForeGround"
       id="linkFG10495"
       d="M282.3432203389831,237.52840909090907C282.3432203389831,261.28125 277.3898305084746,261.28125 277.3898305084746,285.0340909090909"
       stroke="#8c510a"
       opacity="1"
       stroke-width="3.041199826559248" />
    <path
       class="linkForeGround"
       id="linkFG13179"
       d="M302.15677966101697,237.52840909090907C302.15677966101697,261.28125 307.1101694915254,261.28125 307.1101694915254,285.0340909090909"
       stroke="#8c510a"
       opacity="1"
       stroke-width="2.7609125905568126" />
    <path
       class="linkForeGround"
       id="linkFG4401"
       d="M312.06355932203394,237.52840909090907C312.06355932203394,261.28125 307.1101694915254,261.28125 307.1101694915254,285.0340909090909"
       stroke="#8c510a"
       opacity="1"
       stroke-width="1" />
    <path
       class="linkForeGround"
       id="linkFG31395"
       d="M331.8771186440678,237.52840909090907C331.8771186440678,261.28125 336.8305084745763,261.28125 336.8305084745763,285.0340909090909"
       stroke="#8c510a"
       opacity="1"
       stroke-width="2.5490195998574308" />
    <path
       class="linkForeGround"
       id="linkFG11165"
       d="M341.7838983050848,237.52840909090907C341.7838983050848,261.28125 336.8305084745763,261.28125 336.8305084745763,285.0340909090909"
       stroke="#8c510a"
       opacity="1"
       stroke-width="1" />
    <path
       class="linkForeGround"
       id="linkFG27486"
       d="M361.5974576271187,237.52840909090907C361.5974576271187,261.28125 366.5508474576271,261.28125 366.5508474576271,285.0340909090909"
       stroke="#8c510a"
       opacity="1"
       stroke-width="3.4797326636180657" />
    <path
       class="linkForeGround"
       id="linkFG61893"
       d="M371.50423728813564,237.52840909090907C371.50423728813564,261.28125 366.5508474576271,261.28125 366.5508474576271,285.0340909090909"
       stroke="#8c510a"
       opacity="1"
       stroke-width="1.7638834586345462" />
    <path
       class="linkForeGround"
       id="linkFG27420"
       d="M411.1313559322034,237.52840909090907C411.1313559322034,261.28125 416.0847457627119,261.28125 416.0847457627119,285.0340909090909"
       stroke="#dfc27d"
       opacity="1"
       stroke-width="2.026623418971476" />
    <path
       class="linkForeGround"
       id="linkFG16560"
       d="M421.0381355932204,237.52840909090907C421.0381355932204,261.28125 416.0847457627119,261.28125 416.0847457627119,285.0340909090909"
       stroke="#dfc27d"
       opacity="1"
       stroke-width="2.9926747986151274" />
    <path
       class="linkForeGround"
       id="linkFG46975"
       d="M440.85169491525426,237.52840909090907C440.85169491525426,261.28125 445.80508474576277,261.28125 445.80508474576277,285.0340909090909"
       stroke="#dfc27d"
       opacity="1"
       stroke-width="2.7516377449195337" />
    <path
       class="linkForeGround"
       id="linkFG17064"
       d="M450.7584745762712,237.52840909090907C450.7584745762712,261.28125 445.80508474576277,261.28125 445.80508474576277,285.0340909090909"
       stroke="#dfc27d"
       opacity="1"
       stroke-width="2.9188552623891315" />
    <path
       class="linkForeGround"
       id="linkFG43281"
       d="M470.5720338983051,237.52840909090907C470.5720338983051,261.28125 485.43220338983053,261.28125 485.43220338983053,285.0340909090909"
       stroke="#80cdc1"
       opacity="1"
       stroke-width="3.3365406125348516" />
    <path
       class="linkForeGround"
       id="linkFG3103"
       d="M500.29237288135596,237.52840909090907C500.29237288135596,261.28125 485.43220338983053,261.28125 485.43220338983053,285.0340909090909"
       stroke="#80cdc1"
       opacity="1"
       stroke-width="2.7609125905568126" />
    <path
       class="linkForeGround"
       id="linkFG9329"
       d="M520.1059322033899,237.52840909090907C520.1059322033899,261.28125 525.0593220338983,261.28125 525.0593220338983,285.0340909090909"
       stroke="#01665e"
       opacity="1"
       stroke-width="2.1918640771920854" />
    <path
       class="linkForeGround"
       id="linkFG10351"
       d="M530.0127118644068,237.52840909090907C530.0127118644068,261.28125 525.0593220338983,261.28125 525.0593220338983,285.0340909090909"
       stroke="#01665e"
       opacity="1"
       stroke-width="2.199753170767498" />
    <path
       class="linkForeGround"
       id="linkFG4636"
       d="M549.8262711864407,237.52840909090907C549.8262711864407,261.28125 564.6864406779662,261.28125 564.6864406779662,285.0340909090909"
       stroke="#01665e"
       opacity="1"
       stroke-width="3.5272531608942597" />
    <path
       class="linkForeGround"
       id="linkFG5930"
       d="M579.5466101694916,237.52840909090907C579.5466101694916,261.28125 564.6864406779662,261.28125 564.6864406779662,285.0340909090909"
       stroke="#01665e"
       opacity="1"
       stroke-width="2.7609125905568126" />
    <path
       class="linkForeGround"
       id="linkFG4732"
       d="M609.2669491525425,237.52840909090907C609.2669491525425,261.28125 614.2203389830509,261.28125 614.2203389830509,285.0340909090909"
       stroke="#01665e"
       opacity="1"
       stroke-width="4.010299956639812" />
    <path
       class="linkForeGround"
       id="linkFG1068"
       d="M619.1737288135594,237.52840909090907C619.1737288135594,261.28125 614.2203389830509,261.28125 614.2203389830509,285.0340909090909"
       stroke="#01665e"
       opacity="1"
       stroke-width="2.249387366082999" />
    <path
       class="linkForeGround"
       id="linkFG13027"
       d="M658.8008474576271,237.52840909090907C658.8008474576271,261.28125 663.7542372881356,261.28125 663.7542372881356,285.0340909090909"
       stroke="#35978f"
       opacity="1"
       stroke-width="3.340832060333679" />
    <path
       class="linkForeGround"
       id="linkFG14581"
       d="M668.7076271186442,237.52840909090907C668.7076271186442,261.28125 663.7542372881356,261.28125 663.7542372881356,285.0340909090909"
       stroke="#35978f"
       opacity="1"
       stroke-width="2.3262556527459086" />
    <path
       class="linkForeGround"
       id="linkFG25382"
       d="M688.521186440678,237.52840909090907C688.521186440678,261.28125 693.4745762711865,261.28125 693.4745762711865,285.0340909090909"
       stroke="#35978f"
       opacity="1"
       stroke-width="2.3262556527459095" />
    <path
       class="linkForeGround"
       id="linkFG6755"
       d="M698.427966101695,237.52840909090907C698.427966101695,261.28125 693.4745762711865,261.28125 693.4745762711865,285.0340909090909"
       stroke="#35978f"
       opacity="1"
       stroke-width="5.563660331290429" />
    <path
       class="linkForeGround"
       id="linkFG9558"
       d="M767.7754237288136,237.52840909090907C767.7754237288136,261.28125 792.542372881356,261.28125 792.542372881356,285.0340909090909"
       stroke="#35978f"
       opacity="1"
       stroke-width="4.245110915135041" />
    <path
       class="linkForeGround"
       id="linkFG18405"
       d="M817.3093220338984,237.52840909090907C817.3093220338984,261.28125 792.542372881356,261.28125 792.542372881356,285.0340909090909"
       stroke="#35978f"
       opacity="1"
       stroke-width="3.7106677228653786" />
    <path
       class="linkForeGround"
       id="linkFG14245"
       d="M847.0296610169493,237.52840909090907C847.0296610169493,261.28125 851.9830508474577,261.28125 851.9830508474577,285.0340909090909"
       stroke="#35978f"
       opacity="1"
       stroke-width="4.617278360175928" />
    <path
       class="linkForeGround"
       id="linkFG50454"
       d="M856.9364406779662,237.52840909090907C856.9364406779662,261.28125 851.9830508474577,261.28125 851.9830508474577,285.0340909090909"
       stroke="#35978f"
       opacity="1"
       stroke-width="3.697723019335391" />
    <path
       class="linkForeGround"
       id="linkFG34182"
       d="M9.90677966101695,190.02272727272725C9.90677966101695,213.77556818181816 14.860169491525426,213.77556818181816 14.860169491525426,237.52840909090907"
       stroke="#bf812d"
       opacity="1"
       stroke-width="2.99572354905204" />
    <path
       class="linkForeGround"
       id="linkFG14285"
       d="M19.8135593220339,190.02272727272725C19.8135593220339,213.77556818181816 14.860169491525426,213.77556818181816 14.860169491525426,237.52840909090907"
       stroke="#bf812d"
       opacity="1"
       stroke-width="4.424226808222063" />
    <path
       class="linkForeGround"
       id="linkFG47048"
       d="M39.6271186440678,190.02272727272725C39.6271186440678,213.77556818181816 44.58050847457628,213.77556818181816 44.58050847457628,237.52840909090907"
       stroke="#bf812d"
       opacity="1"
       stroke-width="2.5760785336166796" />
    <path
       class="linkForeGround"
       id="linkFG74025"
       d="M49.53389830508475,190.02272727272725C49.53389830508475,213.77556818181816 44.58050847457628,213.77556818181816 44.58050847457628,237.52840909090907"
       stroke="#bf812d"
       opacity="1"
       stroke-width="2.8184358794477244" />
    <path
       class="linkForeGround"
       id="linkFG87648"
       d="M69.34745762711864,190.02272727272725C69.34745762711864,213.77556818181816 89.16101694915255,213.77556818181816 89.16101694915255,237.52840909090907"
       stroke="#bf812d"
       opacity="1"
       stroke-width="4.2757564048009655" />
    <path
       class="linkForeGround"
       id="linkFG17500"
       d="M108.97457627118645,190.02272727272725C108.97457627118645,213.77556818181816 89.16101694915255,213.77556818181816 89.16101694915255,237.52840909090907"
       stroke="#bf812d"
       opacity="1"
       stroke-width="4.378869269893247" />
    <path
       class="linkForeGround"
       id="linkFG102064"
       d="M128.78813559322035,190.02272727272725C128.78813559322035,213.77556818181816 133.74152542372883,213.77556818181816 133.74152542372883,237.52840909090907"
       stroke="#bf812d"
       opacity="1"
       stroke-width="3.1912589128088293" />
    <path
       class="linkForeGround"
       id="linkFG57861"
       d="M138.6949152542373,190.02272727272725C138.6949152542373,213.77556818181816 133.74152542372883,213.77556818181816 133.74152542372883,237.52840909090907"
       stroke="#bf812d"
       opacity="1"
       stroke-width="2.9188552623891315" />
    <path
       class="linkForeGround"
       id="linkFG62130"
       d="M168.41525423728814,190.02272727272725C168.41525423728814,213.77556818181816 183.27542372881356,213.77556818181816 183.27542372881356,237.52840909090907"
       stroke="#bf812d"
       opacity="1"
       stroke-width="3.174839442139062" />
    <path
       class="linkForeGround"
       id="linkFG8964"
       d="M198.135593220339,190.02272727272725C198.135593220339,213.77556818181816 183.27542372881356,213.77556818181816 183.27542372881356,237.52840909090907"
       stroke="#bf812d"
       opacity="1"
       stroke-width="3.2184874961635637" />
    <path
       class="linkForeGround"
       id="linkFG25542"
       d="M356.6440677966102,190.02272727272725C356.6440677966102,213.77556818181816 361.5974576271187,213.77556818181816 361.5974576271187,237.52840909090907"
       stroke="#8c510a"
       opacity="1"
       stroke-width="1.5272891068233636" />
    <path
       class="linkForeGround"
       id="linkFG46130"
       d="M366.5508474576271,190.02272727272725C366.5508474576271,213.77556818181816 361.5974576271187,213.77556818181816 361.5974576271187,237.52840909090907"
       stroke="#8c510a"
       opacity="1"
       stroke-width="3.0411998265592484" />
    <path
       class="linkForeGround"
       id="linkFG24063"
       d="M416.0847457627119,190.02272727272725C416.0847457627119,213.77556818181816 421.0381355932204,213.77556818181816 421.0381355932204,237.52840909090907"
       stroke="#dfc27d"
       opacity="1"
       stroke-width="3.662678894047692" />
    <path
       class="linkForeGround"
       id="linkFG7438"
       d="M425.99152542372883,190.02272727272725C425.99152542372883,213.77556818181816 421.0381355932204,213.77556818181816 421.0381355932204,237.52840909090907"
       stroke="#dfc27d"
       opacity="1"
       stroke-width="4.010299956639812" />
    <path
       class="linkForeGround"
       id="linkFG24360"
       d="M465.61864406779665,190.02272727272725C465.61864406779665,213.77556818181816 470.5720338983051,213.77556818181816 470.5720338983051,237.52840909090907"
       stroke="#80cdc1"
       opacity="1"
       stroke-width="2.461280356782379" />
    <path
       class="linkForeGround"
       id="linkFG3265"
       d="M475.5254237288136,190.02272727272725C475.5254237288136,213.77556818181816 470.5720338983051,213.77556818181816 470.5720338983051,237.52840909090907"
       stroke="#80cdc1"
       opacity="1"
       stroke-width="4.010299956639812" />
    <path
       class="linkForeGround"
       id="linkFG37548"
       d="M495.3389830508475,190.02272727272725C495.3389830508475,213.77556818181816 500.29237288135596,213.77556818181816 500.29237288135596,237.52840909090907"
       stroke="#80cdc1"
       opacity="1"
       stroke-width="2.3830269816628142" />
    <path
       class="linkForeGround"
       id="linkFG20579"
       d="M505.2457627118644,190.02272727272725C505.2457627118644,213.77556818181816 500.29237288135596,213.77556818181816 500.29237288135596,237.52840909090907"
       stroke="#80cdc1"
       opacity="1"
       stroke-width="2.1650556907143708" />
    <path
       class="linkForeGround"
       id="linkFG5270"
       d="M544.8728813559322,190.02272727272725C544.8728813559322,213.77556818181816 549.8262711864407,213.77556818181816 549.8262711864407,237.52840909090907"
       stroke="#01665e"
       opacity="1"
       stroke-width="2.7609125905568126" />
    <path
       class="linkForeGround"
       id="linkFG3640"
       d="M554.7796610169491,190.02272727272725C554.7796610169491,213.77556818181816 549.8262711864407,213.77556818181816 549.8262711864407,237.52840909090907"
       stroke="#01665e"
       opacity="1"
       stroke-width="2.1650556907143708" />
    <path
       class="linkForeGround"
       id="linkFG5355"
       d="M574.5932203389831,190.02272727272725C574.5932203389831,213.77556818181816 579.5466101694916,213.77556818181816 579.5466101694916,237.52840909090907"
       stroke="#01665e"
       opacity="1"
       stroke-width="2.6749108729376356" />
    <path
       class="linkForeGround"
       id="linkFG8400"
       d="M584.5,190.02272727272725C584.5,213.77556818181816 579.5466101694916,213.77556818181816 579.5466101694916,237.52840909090907"
       stroke="#01665e"
       opacity="1"
       stroke-width="2.2057393120584994" />
    <path
       class="linkForeGround"
       id="linkFG4136"
       d="M604.3135593220339,190.02272727272725C604.3135593220339,213.77556818181816 609.2669491525425,213.77556818181816 609.2669491525425,237.52840909090907"
       stroke="#01665e"
       opacity="1"
       stroke-width="2.739804676251969" />
    <path
       class="linkForeGround"
       id="linkFG3204"
       d="M614.2203389830509,190.02272727272725C614.2203389830509,213.77556818181816 609.2669491525425,213.77556818181816 609.2669491525425,237.52840909090907"
       stroke="#01665e"
       opacity="1"
       stroke-width="1.5115252244738129" />
    <path
       class="linkForeGround"
       id="linkFG17442"
       d="M653.8474576271187,190.02272727272725C653.8474576271187,213.77556818181816 658.8008474576271,213.77556818181816 658.8008474576271,237.52840909090907"
       stroke="#35978f"
       opacity="1"
       stroke-width="2.6749108729376356" />
    <path
       class="linkForeGround"
       id="linkFG9425"
       d="M663.7542372881356,190.02272727272725C663.7542372881356,213.77556818181816 658.8008474576271,213.77556818181816 658.8008474576271,237.52840909090907"
       stroke="#35978f"
       opacity="1"
       stroke-width="3.552725051033061" />
    <path
       class="linkForeGround"
       id="linkFG37453"
       d="M693.4745762711865,190.02272727272725C693.4745762711865,213.77556818181816 698.427966101695,213.77556818181816 698.427966101695,237.52840909090907"
       stroke="#35978f"
       opacity="1"
       stroke-width="2.658720938739949" />
    <path
       class="linkForeGround"
       id="linkFG1363"
       d="M703.3813559322034,190.02272727272725C703.3813559322034,213.77556818181816 698.427966101695,213.77556818181816 698.427966101695,237.52840909090907"
       stroke="#35978f"
       opacity="1"
       stroke-width="5.771212547196624" />
    <path
       class="linkForeGround"
       id="path153"
       d="M752.9152542372882,190.02272727272725C752.9152542372882,213.77556818181816 767.7754237288136,213.77556818181816 767.7754237288136,237.52840909090907"
       stroke="#35978f"
       opacity="1"
       stroke-width="4.010299956639812" />
    <path
       class="linkForeGround"
       id="linkFG12947"
       d="M782.635593220339,190.02272727272725C782.635593220339,213.77556818181816 767.7754237288136,213.77556818181816 767.7754237288136,237.52840909090907"
       stroke="#35978f"
       opacity="1"
       stroke-width="2.3469857389745625" />
    <path
       class="linkForeGround"
       id="linkFG11151"
       d="M812.3559322033899,190.02272727272725C812.3559322033899,213.77556818181816 817.3093220338984,213.77556818181816 817.3093220338984,237.52840909090907"
       stroke="#35978f"
       opacity="1"
       stroke-width="3.762064119389491" />
    <path
       class="linkForeGround"
       id="linkFG10420"
       d="M822.2627118644068,190.02272727272725C822.2627118644068,213.77556818181816 817.3093220338984,213.77556818181816 817.3093220338984,237.52840909090907"
       stroke="#35978f"
       opacity="1"
       stroke-width="2.7609125905568126" />
    <path
       class="linkForeGround"
       id="linkFG13266"
       d="M842.0762711864407,190.02272727272725C842.0762711864407,213.77556818181816 847.0296610169493,213.77556818181816 847.0296610169493,237.52840909090907"
       stroke="#35978f"
       opacity="1"
       stroke-width="3.563435154658315" />
    <path
       class="linkForeGround"
       id="linkFG24446"
       d="M851.9830508474577,190.02272727272725C851.9830508474577,213.77556818181816 847.0296610169493,213.77556818181816 847.0296610169493,237.52840909090907"
       stroke="#35978f"
       opacity="1"
       stroke-width="3.167091099639452" />
    <path
       class="linkForeGround"
       id="linkFG66654"
       d="M14.860169491525426,142.51704545454544C14.860169491525426,166.26988636363635 19.8135593220339,166.26988636363635 19.8135593220339,190.02272727272725"
       stroke="#bf812d"
       opacity="1"
       stroke-width="2.3298318918766983" />
    <path
       class="linkForeGround"
       id="linkFG77571"
       d="M24.766949152542374,142.51704545454544C24.766949152542374,166.26988636363635 19.8135593220339,166.26988636363635 19.8135593220339,190.02272727272725"
       stroke="#bf812d"
       opacity="1"
       stroke-width="2.127042801912882" />
    <path
       class="linkForeGround"
       id="linkFG91443"
       d="M64.39406779661017,142.51704545454544C64.39406779661017,166.26988636363635 69.34745762711864,166.26988636363635 69.34745762711864,190.02272727272725"
       stroke="#bf812d"
       opacity="1"
       stroke-width="2.900019377277941" />
    <path
       class="linkForeGround"
       id="linkFG13545"
       d="M74.30084745762713,142.51704545454544C74.30084745762713,166.26988636363635 69.34745762711864,166.26988636363635 69.34745762711864,190.02272727272725"
       stroke="#bf812d"
       opacity="1"
       stroke-width="1.791812460476248" />
    <path
       class="linkForeGround"
       id="linkFG22572"
       d="M104.02118644067798,142.51704545454544C104.02118644067798,166.26988636363635 108.97457627118645,166.26988636363635 108.97457627118645,190.02272727272725"
       stroke="#bf812d"
       opacity="1"
       stroke-width="1.871501757189002" />
    <path
       class="linkForeGround"
       id="linkFG86559"
       d="M113.92796610169492,142.51704545454544C113.92796610169492,166.26988636363635 108.97457627118645,166.26988636363635 108.97457627118645,190.02272727272725"
       stroke="#bf812d"
       opacity="1"
       stroke-width="2.249387366082999" />
    <path
       class="linkForeGround"
       id="linkFG32285"
       d="M133.74152542372883,142.51704545454544C133.74152542372883,166.26988636363635 138.6949152542373,166.26988636363635 138.6949152542373,190.02272727272725"
       stroke="#bf812d"
       opacity="1"
       stroke-width="2.1394335230683676" />
    <path
       class="linkForeGround"
       id="linkFG16180"
       d="M143.64830508474577,142.51704545454544C143.64830508474577,166.26988636363635 138.6949152542373,166.26988636363635 138.6949152542373,190.02272727272725"
       stroke="#bf812d"
       opacity="1"
       stroke-width="2.46128035678238" />
    <path
       class="linkForeGround"
       id="linkFG40599"
       d="M163.46186440677968,142.51704545454544C163.46186440677968,166.26988636363635 168.41525423728814,166.26988636363635 168.41525423728814,190.02272727272725"
       stroke="#bf812d"
       opacity="1"
       stroke-width="2.8708664335714436" />
    <path
       class="linkForeGround"
       id="linkFG53346"
       d="M173.36864406779662,142.51704545454544C173.36864406779662,166.26988636363635 168.41525423728814,166.26988636363635 168.41525423728814,190.02272727272725"
       stroke="#bf812d"
       opacity="1"
       stroke-width="2.3127891463931882" />
    <path
       class="linkForeGround"
       id="linkFG117351"
       d="M193.18220338983053,142.51704545454544C193.18220338983053,166.26988636363635 198.135593220339,166.26988636363635 198.135593220339,190.02272727272725"
       stroke="#bf812d"
       opacity="1"
       stroke-width="3.66267889404769" />
    <path
       class="linkForeGround"
       id="linkFG24260"
       d="M203.08898305084747,142.51704545454544C203.08898305084747,166.26988636363635 198.135593220339,166.26988636363635 198.135593220339,190.02272727272725"
       stroke="#bf812d"
       opacity="1"
       stroke-width="3.1085336531489323" />
    <path
       class="linkForeGround"
       id="linkFG20988"
       d="M351.6906779661017,142.51704545454544C351.6906779661017,166.26988636363635 356.6440677966102,166.26988636363635 356.6440677966102,190.02272727272725"
       stroke="#8c510a"
       opacity="1"
       stroke-width="2.597008428675119" />
    <path
       class="linkForeGround"
       id="linkFG16548"
       d="M361.5974576271187,142.51704545454544C361.5974576271187,166.26988636363635 356.6440677966102,166.26988636363635 356.6440677966102,190.02272727272725"
       stroke="#8c510a"
       opacity="1"
       stroke-width="2.091444694250681" />
    <path
       class="linkForeGround"
       id="linkFG13100"
       d="M470.5720338983051,142.51704545454544C470.5720338983051,166.26988636363635 475.5254237288136,166.26988636363635 475.5254237288136,190.02272727272725"
       stroke="#80cdc1"
       opacity="1"
       stroke-width="1.9691001300805642" />
    <path
       class="linkForeGround"
       id="linkFG11515"
       d="M480.4788135593221,142.51704545454544C480.4788135593221,166.26988636363635 475.5254237288136,166.26988636363635 475.5254237288136,190.02272727272725"
       stroke="#80cdc1"
       opacity="1"
       stroke-width="3.34083206033368" />
    <path
       class="linkForeGround"
       id="linkFG2307"
       d="M599.3601694915254,142.51704545454544C599.3601694915254,166.26988636363635 604.3135593220339,166.26988636363635 604.3135593220339,190.02272727272725"
       stroke="#01665e"
       opacity="1"
       stroke-width="1.6694678963061311" />
    <path
       class="linkForeGround"
       id="linkFG3528"
       d="M609.2669491525425,142.51704545454544C609.2669491525425,166.26988636363635 604.3135593220339,166.26988636363635 604.3135593220339,190.02272727272725"
       stroke="#01665e"
       opacity="1"
       stroke-width="1.871501757189002" />
    <path
       class="linkForeGround"
       id="linkFG35742"
       d="M658.8008474576271,142.51704545454544C658.8008474576271,166.26988636363635 663.7542372881356,166.26988636363635 663.7542372881356,190.02272727272725"
       stroke="#35978f"
       opacity="1"
       stroke-width="2.970196422379855" />
    <path
       class="linkForeGround"
       id="linkFG33033"
       d="M668.7076271186442,142.51704545454544C668.7076271186442,166.26988636363635 663.7542372881356,166.26988636363635 663.7542372881356,190.02272727272725"
       stroke="#35978f"
       opacity="1"
       stroke-width="3.391856852098511" />
    <path
       class="linkForeGround"
       id="linkFG15570"
       d="M688.521186440678,142.51704545454544C688.521186440678,166.26988636363635 703.3813559322034,166.26988636363635 703.3813559322034,190.02272727272725"
       stroke="#35978f"
       opacity="1"
       stroke-width="4.142886609474974" />
    <path
       class="linkForeGround"
       id="linkFG16668"
       d="M718.2415254237288,142.51704545454544C718.2415254237288,166.26988636363635 703.3813559322034,166.26988636363635 703.3813559322034,190.02272727272725"
       stroke="#35978f"
       opacity="1"
       stroke-width="3.730012720637375" />
    <path
       class="linkForeGround"
       id="linkFG19413"
       d="M747.9618644067797,142.51704545454544C747.9618644067797,166.26988636363635 752.9152542372882,166.26988636363635 752.9152542372882,190.02272727272725"
       stroke="#35978f"
       opacity="1"
       stroke-width="4.2724537850075635" />
    <path
       class="linkForeGround"
       id="linkFG17460"
       d="M757.8686440677967,142.51704545454544C757.8686440677967,166.26988636363635 752.9152542372882,166.26988636363635 752.9152542372882,190.02272727272725"
       stroke="#35978f"
       opacity="1"
       stroke-width="2.901448646626118" />
    <path
       class="linkForeGround"
       id="linkFG33754"
       d="M777.6822033898305,142.51704545454544C777.6822033898305,166.26988636363635 782.635593220339,166.26988636363635 782.635593220339,190.02272727272725"
       stroke="#35978f"
       opacity="1"
       stroke-width="3.362492677898756" />
    <path
       class="linkForeGround"
       id="linkFG10683"
       d="M787.5889830508476,142.51704545454544C787.5889830508476,166.26988636363635 782.635593220339,166.26988636363635 782.635593220339,190.02272727272725"
       stroke="#35978f"
       opacity="1"
       stroke-width="2.249387366082999" />
    <path
       class="linkForeGround"
       id="linkFG34695"
       d="M807.4025423728814,142.51704545454544C807.4025423728814,166.26988636363635 812.3559322033899,166.26988636363635 812.3559322033899,190.02272727272725"
       stroke="#35978f"
       opacity="1"
       stroke-width="2.9188552623891306" />
    <path
       class="linkForeGround"
       id="linkFG14994"
       d="M817.3093220338984,142.51704545454544C817.3093220338984,166.26988636363635 812.3559322033899,166.26988636363635 812.3559322033899,190.02272727272725"
       stroke="#35978f"
       opacity="1"
       stroke-width="2.995723549052041" />
    <path
       class="linkForeGround"
       id="linkFG20349"
       d="M847.0296610169493,142.51704545454544C847.0296610169493,166.26988636363635 851.9830508474577,166.26988636363635 851.9830508474577,190.02272727272725"
       stroke="#35978f"
       opacity="1"
       stroke-width="3.7150970397399155" />
    <path
       class="linkForeGround"
       id="linkFG13185"
       d="M856.9364406779662,142.51704545454544C856.9364406779662,166.26988636363635 851.9830508474577,166.26988636363635 851.9830508474577,190.02272727272725"
       stroke="#35978f"
       opacity="1"
       stroke-width="2.597008428675119" />
    <path
       class="linkForeGround"
       id="linkFG46240"
       d="M69.34745762711864,95.01136363636363C69.34745762711864,118.76420454545453 74.30084745762713,118.76420454545453 74.30084745762713,142.51704545454544"
       stroke="#bf812d"
       opacity="1"
       stroke-width="1.7058107428570712" />
    <path
       class="linkForeGround"
       id="linkFG46529"
       d="M79.2542372881356,95.01136363636363C79.2542372881356,118.76420454545453 74.30084745762713,118.76420454545453 74.30084745762713,142.51704545454544"
       stroke="#bf812d"
       opacity="1"
       stroke-width="2.3127891463931882" />
    <path
       class="linkForeGround"
       id="linkFG17612"
       d="M99.0677966101695,95.01136363636363C99.0677966101695,118.76420454545453 104.02118644067798,118.76420454545453 104.02118644067798,142.51704545454544"
       stroke="#bf812d"
       opacity="1"
       stroke-width="4.084119492865807" />
    <path
       class="linkForeGround"
       id="linkFG59685"
       d="M108.97457627118645,95.01136363636363C108.97457627118645,118.76420454545453 104.02118644067798,118.76420454545453 104.02118644067798,142.51704545454544"
       stroke="#bf812d"
       opacity="1"
       stroke-width="2.4342214230231307" />
    <path
       class="linkForeGround"
       id="linkFG70955"
       d="M198.135593220339,95.01136363636363C198.135593220339,118.76420454545453 203.08898305084747,118.76420454545453 203.08898305084747,142.51704545454544"
       stroke="#bf812d"
       opacity="1"
       stroke-width="2.4342214230231294" />
    <path
       class="linkForeGround"
       id="linkFG113035"
       d="M208.04237288135596,95.01136363636363C208.04237288135596,118.76420454545453 203.08898305084747,118.76420454545453 203.08898305084747,142.51704545454544"
       stroke="#bf812d"
       opacity="1"
       stroke-width="2.721609654272487" />
    <path
       class="linkForeGround"
       id="linkFG37512"
       d="M346.73728813559325,95.01136363636363C346.73728813559325,118.76420454545453 351.6906779661017,118.76420454545453 351.6906779661017,142.51704545454544"
       stroke="#8c510a"
       opacity="1"
       stroke-width="1.2632893872234905" />
    <path
       class="linkForeGround"
       id="linkFG18852"
       d="M356.6440677966102,95.01136363636363C356.6440677966102,118.76420454545453 351.6906779661017,118.76420454545453 351.6906779661017,142.51704545454544"
       stroke="#8c510a"
       opacity="1"
       stroke-width="2.846914308175988" />
    <path
       class="linkForeGround"
       id="linkFG1579"
       d="M683.5677966101696,95.01136363636363C683.5677966101696,118.76420454545453 688.521186440678,118.76420454545453 688.521186440678,142.51704545454544"
       stroke="#35978f"
       opacity="1"
       stroke-width="1" />
    <path
       class="linkForeGround"
       id="path199"
       d="M693.4745762711865,95.01136363636363C693.4745762711865,118.76420454545453 688.521186440678,118.76420454545453 688.521186440678,142.51704545454544"
       stroke="#35978f"
       opacity="1"
       stroke-width="2.6236523454892358" />
    <path
       class="linkForeGround"
       id="linkFG20909"
       d="M713.2881355932204,95.01136363636363C713.2881355932204,118.76420454545453 718.2415254237288,118.76420454545453 718.2415254237288,142.51704545454544"
       stroke="#35978f"
       opacity="1"
       stroke-width="2.9081451587638742" />
    <path
       class="linkForeGround"
       id="linkFG24816"
       d="M723.1949152542373,95.01136363636363C723.1949152542373,118.76420454545453 718.2415254237288,118.76420454545453 718.2415254237288,142.51704545454544"
       stroke="#35978f"
       opacity="1"
       stroke-width="2.9948922838912995" />
    <path
       class="linkForeGround"
       id="linkFG19516"
       d="M743.0084745762713,95.01136363636363C743.0084745762713,118.76420454545453 747.9618644067797,118.76420454545453 747.9618644067797,142.51704545454544"
       stroke="#35978f"
       opacity="1"
       stroke-width="2.84524426592544" />
    <path
       class="linkForeGround"
       id="linkFG8732"
       d="M752.9152542372882,95.01136363636363C752.9152542372882,118.76420454545453 747.9618644067797,118.76420454545453 747.9618644067797,142.51704545454544"
       stroke="#35978f"
       opacity="1"
       stroke-width="3.1085336531489323" />
    <path
       class="linkForeGround"
       id="linkFG2513"
       d="M812.3559322033899,95.01136363636363C812.3559322033899,118.76420454545453 817.3093220338984,118.76420454545453 817.3093220338984,142.51704545454544"
       stroke="#35978f"
       opacity="1"
       stroke-width="4.010299956639812" />
    <path
       class="linkForeGround"
       id="linkFG17703"
       d="M822.2627118644068,95.01136363636363C822.2627118644068,118.76420454545453 817.3093220338984,118.76420454545453 817.3093220338984,142.51704545454544"
       stroke="#35978f"
       opacity="1"
       stroke-width="2.5490195998574308" />
    <path
       class="linkForeGround"
       id="linkFG12610"
       d="M94.11440677966102,47.50568181818181C94.11440677966102,71.25852272727272 99.0677966101695,71.25852272727272 99.0677966101695,95.01136363636363"
       stroke="#bf812d"
       opacity="1"
       stroke-width="1.791812460476248" />
    <path
       class="linkForeGround"
       id="linkFG51470"
       d="M104.02118644067798,47.50568181818181C104.02118644067798,71.25852272727272 99.0677966101695,71.25852272727272 99.0677966101695,95.01136363636363"
       stroke="#bf812d"
       opacity="1"
       stroke-width="2.30333768495006" />
    <path
       class="linkForeGround"
       id="linkFG15200"
       d="M678.6144067796611,47.50568181818181C678.6144067796611,71.25852272727272 683.5677966101696,71.25852272727272 683.5677966101696,95.01136363636363"
       stroke="#35978f"
       opacity="1"
       stroke-width="3.2964143218022395" />
    <path
       class="linkForeGround"
       id="linkFG10608"
       d="M688.521186440678,47.50568181818181C688.521186440678,71.25852272727272 683.5677966101696,71.25852272727272 683.5677966101696,95.01136363636363"
       stroke="#35978f"
       opacity="1"
       stroke-width="3.2847932851536945" />
    <path
       class="linkForeGround"
       id="linkFG25944"
       d="M747.9618644067797,47.50568181818181C747.9618644067797,71.25852272727272 752.9152542372882,71.25852272727272 752.9152542372882,95.01136363636363"
       stroke="#35978f"
       opacity="1"
       stroke-width="2.8234020833268265" />
    <path
       class="linkForeGround"
       id="linkFG23226"
       d="M757.8686440677967,47.50568181818181C757.8686440677967,71.25852272727272 752.9152542372882,71.25852272727272 752.9152542372882,95.01136363636363"
       stroke="#35978f"
       opacity="1"
       stroke-width="3.369688942708561" />
    <path
       class="linkForeGround"
       id="linkFG50690"
       d="M89.16101694915255,0C89.16101694915255,23.752840909090907 94.11440677966102,23.752840909090907 94.11440677966102,47.50568181818181"
       stroke="#bf812d"
       opacity="1"
       stroke-width="2.9033169817029147" />
    <path
       class="linkForeGround"
       id="linkFG48526"
       d="M99.0677966101695,0C99.0677966101695,23.752840909090907 94.11440677966102,23.752840909090907 94.11440677966102,47.50568181818181"
       stroke="#bf812d"
       opacity="1"
       stroke-width="2.014576407587769" />
    <path
       class="linkForeGround"
       id="linkFG909"
       d="M479.7048463983051,518.8096590909091a267.3130186639,267.3130186639,0,0,1,-1.0406654344000117,112.39186691309996"
       stroke="#d95f02"
       stroke-width="10"
       fill="none" />
    <path
       class="linkForeGround"
       id="linkFG"
       d="M258.505031779661,475.0568181818182C258.505031779661,525.0568181818182 416.0847457627119,505.0568181818182 416.0847457627119,475.0568181818182"
       stroke="#B22222"
       stroke-width="5"
       fill="none" />
    <path
       class="linkForeGround"
       id="path217"
       d="M700.9046610169491,475.0568181818182C700.9046610169491,525.0568181818182 495.3389830508475,505.0568181818182 495.3389830508475,475.0568181818182"
       stroke="#B22222"
       stroke-width="5"
       fill="none" />
    <path
       class="linkForeGround"
       id="linkFG26055"
       stroke="#7570b3"
       stroke-width="10"
       fill="none"
       d="M258.505031779661,475.0568181818182L258.505031779661,484.5783351089015C258.505031779661,494.0998520359849,258.505031779661,513.1428858901515,258.505031779661,532.1859197443182C258.505031779661,551.2289535984848,258.505031779661,570.2719874526515,244.22275638903602,581.4601710464016C229.940480998411,592.6483546401515,201.37593021716103,595.9816879734848,187.09365482653604,609.5502507990058C172.81137943591102,623.1188136245265,172.81137943591102,646.9226059422348,172.81137943591102,658.824502101089L172.81137943591102,670.7263982599432" />
    <path
       class="linkForeGround"
       id="linkFG7060"
       stroke="#7570b3"
       stroke-width="10"
       fill="none"
       d="M700.9046610169491,475.0568181818182L700.904661016949,484.5783351089015C700.9046610169493,494.0998520359849,700.9046610169493,513.1428858901515,700.904661016949,532.1859197443182C700.9046610169493,551.2289535984848,700.9046610169493,570.2719874526515,715.1869364075741,581.4601710464016C729.4692117981991,592.6483546401515,758.0337625794491,595.9816879734848,772.3160379700743,609.5502507990058C786.5983133606992,623.1188136245265,786.5983133606992,646.9226059422348,786.5983133606992,658.824502101089L786.5983133606992,670.7263982599432" />
  </g>
</svg>
